<?xml version="1.0" encoding="UTF-8" standalone="no"?>
<!DOCTYPE svg PUBLIC "-//W3C//DTD SVG 1.1//EN" "http://www.w3.org/Graphics/SVG/1.1/DTD/svg11.dtd">
<svg width="100%" height="100%" viewBox="0 0 1198 1194" version="1.1" xmlns="http://www.w3.org/2000/svg" xmlns:xlink="http://www.w3.org/1999/xlink" xml:space="preserve" style="fill-rule:evenodd;clip-rule:evenodd;stroke-linecap:round;stroke-linejoin:round;stroke-miterlimit:1.41421;">
    <g transform="matrix(1,0,0,1,-1.58085,-0.125572)">
        <g transform="matrix(1,0,0,1,3.74519,0.0416983)">
            <path d="M110.712,313.085L319.656,104.141" style="fill:none;stroke-width:14px;stroke:white;"/>
        </g>
        <g transform="matrix(-0.359555,0,0,-1.36123,154.264,739.306)">
            <path d="M110.712,313.085L319.656,104.141" style="fill:none;stroke-width:14.06px;stroke:white;"/>
        </g>
        <g transform="matrix(-0.350136,-0,0,1.37829,151.253,454.011)">
            <path d="M110.712,313.085L319.656,104.141" style="fill:none;stroke-width:13.92px;stroke:white;"/>
        </g>
        <g transform="matrix(0.999468,0,0,-0.976395,1.83614,1191.23)">
            <path d="M110.712,313.085L319.656,104.141" style="fill:none;stroke-width:14.17px;stroke:white;"/>
        </g>
        <g transform="matrix(-1.34918,0,0,0.330799,752.593,1055.09)">
            <path d="M110.712,313.085L319.656,104.141" style="fill:none;stroke-width:14.25px;stroke:white;"/>
        </g>
        <g transform="matrix(1.35479,0,0,0.358549,454.232,1050.41)">
            <path d="M110.712,313.085L319.656,104.141" style="fill:none;stroke-width:14.13px;stroke:white;"/>
        </g>
        <g transform="matrix(-0.984696,0,-0,-1.00438,1202.06,1192.34)">
            <path d="M110.712,313.085L319.656,104.141" style="fill:none;stroke-width:14.08px;stroke:white;"/>
        </g>
        <g transform="matrix(0.350514,0,0,1.35394,1054.24,453.986)">
            <path d="M110.712,313.085L319.656,104.141" style="fill:none;stroke-width:14.16px;stroke:white;"/>
        </g>
        <g transform="matrix(0.370921,0,0,-1.34056,1047.72,734.593)">
            <path d="M110.712,313.085L319.656,104.141" style="fill:none;stroke-width:14.23px;stroke:white;"/>
        </g>
        <g transform="matrix(-0.965619,0,0,0.999202,1195.69,2.05123)">
            <path d="M110.712,313.085L319.656,104.141" style="fill:none;stroke-width:14.25px;stroke:white;"/>
        </g>
        <g transform="matrix(1.3715,0,0,-0.339148,448.613,141.428)">
            <path d="M110.712,313.085L319.656,104.141" style="fill:none;stroke-width:14.01px;stroke:white;"/>
        </g>
        <g transform="matrix(-1.3081,0,-0,-0.323689,745.276,136.588)">
            <path d="M110.712,313.085L319.656,104.141" style="fill:none;stroke-width:14.69px;stroke:white;"/>
        </g>
        <g transform="matrix(0.00146602,0,-0,-1.14526,600.292,393.811)">
            <path d="M110.712,313.085L319.656,104.141" style="fill:none;stroke-width:17.29px;stroke:white;"/>
        </g>
        <g transform="matrix(0.608089,0,0,-1.06177,248.238,431.83)">
            <path d="M110.712,313.085L319.656,104.141" style="fill:none;stroke-width:16.18px;stroke:white;"/>
        </g>
        <g transform="matrix(0.991885,0,0,-0.588688,2.56936,496.621)">
            <path d="M110.712,313.085L319.656,104.141" style="fill:none;stroke-width:17.17px;stroke:white;"/>
        </g>
        <g transform="matrix(-2.69604,0,-0,-0.00723424,1181.43,436.068)">
            <path d="M110.712,313.085L319.656,104.141" style="fill:none;stroke-width:7.34px;stroke:white;"/>
        </g>
        <g transform="matrix(1.02578,0,0,0.583957,769.386,250.975)">
            <path d="M110.712,313.085L319.656,104.141" style="fill:none;stroke-width:16.77px;stroke:white;"/>
        </g>
        <g transform="matrix(0.609233,0,0,1.0335,693.85,-2.94905)">
            <path d="M110.712,313.085L319.656,104.141" style="fill:none;stroke-width:16.5px;stroke:white;"/>
        </g>
        <g transform="matrix(-1.33417,0,0,-2.3687,1030.66,1175.41)">
            <path d="M110.712,313.085L319.656,104.141" style="fill:none;stroke-width:7.28px;stroke:white;"/>
        </g>
        <g transform="matrix(1.37188,0,-0,-2.37527,165.657,1176.09)">
            <path d="M110.712,313.085L319.656,104.141" style="fill:none;stroke-width:7.22px;stroke:white;"/>
        </g>
        <g transform="matrix(0.00290276,0,0,1.13657,603.257,810.366)">
            <path d="M110.712,313.085L319.656,104.141" style="fill:none;stroke-width:17.42px;stroke:white;"/>
        </g>
        <g transform="matrix(-1.36099,0,0,2.32603,1035.81,32.3076)">
            <path d="M110.712,313.085L319.656,104.141" style="fill:none;stroke-width:7.35px;stroke:white;"/>
        </g>
        <g transform="matrix(-2.73808,0,0,0.0022376,1188.27,759.852)">
            <path d="M110.712,313.085L319.656,104.141" style="fill:none;stroke-width:7.23px;stroke:white;"/>
        </g>
        <g transform="matrix(-1.38062,-0,0,-2.33832,754.351,1003.6)">
            <path d="M110.712,313.085L319.656,104.141" style="fill:none;stroke-width:7.29px;stroke:white;"/>
        </g>
        <g transform="matrix(0.949688,0,0,0.592099,9.45369,698.423)">
            <path d="M110.712,313.085L319.656,104.141" style="fill:none;stroke-width:17.69px;stroke:white;"/>
        </g>
        <g transform="matrix(1.15049,0,0,-0.0087508,-91.5066,600.168)">
            <path d="M110.712,313.085L319.656,104.141" style="fill:none;stroke-width:17.21px;stroke:white;"/>
        </g>
        <g transform="matrix(1.15049,0,0,-0.0087508,799.493,600.168)">
            <path d="M110.712,313.085L319.656,104.141" style="fill:none;stroke-width:17.21px;stroke:white;"/>
        </g>
        <g transform="matrix(1.00021,0,0,-0.585256,772.807,941.874)">
            <path d="M110.712,313.085L319.656,104.141" style="fill:none;stroke-width:17.08px;stroke:white;"/>
        </g>
        <g transform="matrix(-2.33026,0,0,1.35317,1184.85,173.771)">
            <path d="M110.712,313.085L319.656,104.141" style="fill:none;stroke-width:7.35px;stroke:white;"/>
        </g>
        <g transform="matrix(-0.00515895,0,0,2.71246,441.622,32.2132)">
            <path d="M110.712,313.085L319.656,104.141" style="fill:none;stroke-width:7.3px;stroke:white;"/>
        </g>
        <g transform="matrix(2.34559,0,0,1.36573,181.367,453.854)">
            <path d="M110.712,313.085L319.656,104.141" style="fill:none;stroke-width:7.29px;stroke:white;"/>
        </g>
        <g transform="matrix(-0.570915,0,0,-1.00646,504.257,1196.55)">
            <path d="M110.712,313.085L319.656,104.141" style="fill:none;stroke-width:17.11px;stroke:white;"/>
        </g>
        <g transform="matrix(-2.34986,0,-0,-1.34683,1027.4,739.517)">
            <path d="M110.712,313.085L319.656,104.141" style="fill:none;stroke-width:7.31px;stroke:white;"/>
        </g>
        <g transform="matrix(-0.00593053,0,0,-2.70745,767.899,1165.51)">
            <path d="M110.712,313.085L319.656,104.141" style="fill:none;stroke-width:7.31px;stroke:white;"/>
        </g>
        <g transform="matrix(2.35296,0,-0,-1.36232,13.8676,1025.42)">
            <path d="M110.712,313.085L319.656,104.141" style="fill:none;stroke-width:7.28px;stroke:white;"/>
        </g>
        <g transform="matrix(-0.577168,0,0,1.00333,950.498,779.062)">
            <path d="M110.712,313.085L319.656,104.141" style="fill:none;stroke-width:17.11px;stroke:white;"/>
        </g>
        <g transform="matrix(1,0,0,1,2.89038,-5.95399)">
            <circle cx="436.791" cy="322.051" r="25.628" style="fill:white;stroke-width:11px;stroke:white;"/>
        </g>
        <g transform="matrix(1,0,0,1,165.151,-50.0429)">
            <circle cx="436.791" cy="322.051" r="25.628" style="fill:rgb(255,137,19);stroke-width:11px;stroke:white;"/>
        </g>
        <g transform="matrix(1,0,0,1,328.981,-3.86541)">
            <circle cx="436.791" cy="322.051" r="25.628" style="fill:white;stroke-width:11px;stroke:white;"/>
        </g>
        <g transform="matrix(1,0,0,1,444.165,113.329)">
            <circle cx="436.791" cy="322.051" r="25.628" style="fill:rgb(255,137,19);stroke-width:11px;stroke:white;"/>
        </g>
        <g transform="matrix(1,0,0,1,492.29,275.678)">
            <circle cx="436.791" cy="322.051" r="25.628" style="fill:white;stroke-width:11px;stroke:white;"/>
        </g>
        <g transform="matrix(1,0,0,1,445.628,437.004)">
            <circle cx="436.791" cy="322.051" r="25.628" style="fill:white;stroke-width:11px;stroke:white;"/>
        </g>
        <g transform="matrix(1,0,0,1,329.248,559.666)">
            <circle cx="436.791" cy="322.051" r="25.628" style="fill:rgb(255,137,19);stroke-width:11px;stroke:white;"/>
        </g>
        <g transform="matrix(1,0,0,1,165.625,601.243)">
            <circle cx="436.791" cy="322.051" r="25.628" style="fill:white;stroke-width:11px;stroke:white;"/>
        </g>
        <g transform="matrix(1,0,0,1,1.79758,556.705)">
            <circle cx="436.791" cy="322.051" r="25.628" style="fill:rgb(255,137,19);stroke-width:11px;stroke:white;"/>
        </g>
        <g transform="matrix(1,0,0,1,-119.281,438.623)">
            <circle cx="436.791" cy="322.051" r="25.628" style="fill:white;stroke-width:11px;stroke:white;"/>
        </g>
        <g transform="matrix(1,0,0,1,-160.862,275.712)">
            <circle cx="436.791" cy="322.051" r="25.628" style="fill:white;stroke-width:11px;stroke:white;"/>
        </g>
        <g transform="matrix(1,0,0,1,-118.613,113.884)">
            <circle cx="436.791" cy="322.051" r="25.628" style="fill:white;stroke-width:11px;stroke:white;"/>
        </g>
        <g transform="matrix(1,0,0,1,-116.692,-217.021)">
            <circle cx="436.791" cy="322.051" r="25.628" style="fill:rgb(255,137,19);stroke-width:11px;stroke:white;"/>
        </g>
        <g transform="matrix(1,0,0,1,165.721,-286.772)">
            <circle cx="436.791" cy="322.051" r="25.628" style="fill:white;stroke-width:11px;stroke:white;"/>
        </g>
        <g transform="matrix(1,0,0,1,451.469,-212.735)">
            <circle cx="436.791" cy="322.051" r="25.628" style="fill:rgb(255,137,19);stroke-width:11px;stroke:white;"/>
        </g>
        <g transform="matrix(1,0,0,1,653.093,-6.49458)">
            <circle cx="436.791" cy="322.051" r="25.628" style="fill:white;stroke-width:11px;stroke:white;"/>
        </g>
        <g transform="matrix(1,0,0,1,727.444,275.765)">
            <circle cx="436.791" cy="322.051" r="25.628" style="fill:rgb(255,137,19);stroke-width:11px;stroke:white;"/>
        </g>
        <g transform="matrix(1,0,0,1,655.246,559.143)">
            <circle cx="436.791" cy="322.051" r="25.628" style="fill:white;stroke-width:11px;stroke:white;"/>
        </g>
        <g transform="matrix(1,0,0,1,446.896,762.722)">
            <circle cx="436.791" cy="322.051" r="25.628" style="fill:white;stroke-width:11px;stroke:white;"/>
        </g>
        <g transform="matrix(1,0,0,1,165.547,836.332)">
            <circle cx="436.791" cy="322.051" r="25.628" style="fill:rgb(255,137,19);stroke-width:11px;stroke:white;"/>
        </g>
        <g transform="matrix(1,0,0,1,-116.661,765.351)">
            <circle cx="436.791" cy="322.051" r="25.628" style="fill:white;stroke-width:11px;stroke:white;"/>
        </g>
        <g transform="matrix(1,0,0,1,-325.052,558.796)">
            <circle cx="436.791" cy="322.051" r="25.628" style="fill:white;stroke-width:11px;stroke:white;"/>
        </g>
        <g transform="matrix(1,0,0,1,-400.056,275.098)">
            <circle cx="436.791" cy="322.051" r="25.628" style="fill:rgb(255,137,19);stroke-width:11px;stroke:white;"/>
        </g>
        <g transform="matrix(1,0,0,1,-323.138,-4.89921)">
            <circle cx="436.791" cy="322.051" r="25.628" style="fill:white;stroke-width:11px;stroke:white;"/>
        </g>
    </g>
</svg>
